<svg width="923" height="919" viewBox="0 0 923 919" fill="none" xmlns="http://www.w3.org/2000/svg">
<rect width="923" height="919" rx="200" fill="white"/>
<path d="M379.409 252.285V345.706H584.399C584.399 347.018 584.399 348.349 584.399 349.681C584.399 388.691 569.601 426.104 543.261 453.688C516.92 481.272 481.194 496.769 443.943 496.769H379.409V671.684C379.409 630.818 378.46 630.321 378.46 670.69C378.46 671.028 378.46 671.346 378.46 671.684C378.209 710.522 363.301 747.679 336.987 775.049C310.674 802.419 275.091 817.779 238.004 817.778C237.055 817.778 236.106 817.778 235.157 817.778V252.285C235.157 250.973 235.157 249.642 235.157 248.31C235.157 209.3 249.955 171.887 276.295 144.303C302.636 116.719 338.362 101.222 375.613 101.222H379.409H687.843C687.843 102.872 687.843 104.522 687.843 106.191C687.846 142.233 675.212 177.021 652.339 203.952C629.467 230.883 597.949 248.082 563.767 252.285H379.409Z" fill="#6492EA"/>
</svg>
